<svg width="14" height="14" viewBox="0 0 14 14" fill="none" xmlns="http://www.w3.org/2000/svg"><g clip-path="url(#clip0_4_48)"><path d="M12.224 8.946c-.762 0-1.51-.119-2.22-.353-.347-.119-.774-.01-.986.208L7.62 9.857C5.996 8.99 4.997 7.99 4.142 6.38l1.026-1.363c.266-.266.362-.654.247-1.019a7.076 7.076 0 01-.355-2.223 1 1 0 00-.998-.998H1.776a1 1 0 00-.998.998c0 6.312 5.134 11.446 11.446 11.446a1 1 0 00.998-.998v-2.28a1 1 0 00-.998-.998z" fill="#fff"/></g><defs><clipPath id="clip0_4_48"><path fill="#fff" transform="translate(.778 .778)" d="M0 0h12.444v12.444H0z"/></clipPath></defs></svg>